<?xml version="1.0" encoding="utf-8"?>
<!-- Uploaded to: SVG Repo, www.svgrepo.com, Generator: SVG Repo Mixer Tools -->
<svg width="800px" height="800px" viewBox="0 0 1024 1024" class="icon"  version="1.1" xmlns="http://www.w3.org/2000/svg"><path d="M 294.793 1014.51 h 435.932 c 95.6923 -68.2135 158.244 -180.061 158.244 -306.547 c 0 -207.679 -168.463 -376.142 -376.142 -376.142 s -376.142 168.463 -376.142 376.142 c -0.138084 126.347 62.2759 238.334 158.106 306.547 Z M 468.642 148.304 h 88.0977 v 149.545 h -88.0977 Z" fill="#fee8eb" /><path d="M 726.169 400.997 H 299.213 c -28.1692 0 -51.0911 -23.0601 -51.0911 -51.0911 v -10.7706 c 0 -28.1692 23.0601 -51.0911 51.0911 -51.0911 h 426.956 c 28.1692 0 51.0911 23.0601 51.0911 51.0911 v 10.7706 c 0 28.1692 -22.9219 51.0911 -51.0911 51.0911 Z" fill="#ffb791" /><path d="M 138.206 673.022 c -1.10467 11.4609 -1.657 23.0601 -1.657 34.7972 c 0 126.484 62.414 238.334 158.244 306.547 h 435.932 c 95.6923 -68.2135 158.244 -180.061 158.244 -306.547 c 0 -11.7372 -0.552336 -23.3363 -1.657 -34.7972 H 138.206 Z" fill="#ffa9b1" /><path d="M 698.553 635.877 c 0 -58.8238 -47.6389 -106.463 -106.463 -106.463 c -32.4498 0 -61.5855 14.4988 -81.0553 37.4208 c -19.4699 -22.9219 -48.6057 -37.4208 -81.0553 -37.4208 c -58.8238 0 -106.463 47.6389 -106.463 106.463 c 0 30.9309 14.2227 56.6145 34.1067 78.1555 l 153.826 147.749 l 151.203 -146.231 c 19.1936 -19.8842 35.9018 -47.9152 35.9018 -79.6746 Z" fill="#ff6b6a" /><path d="M 513.381 125.657 m -104.115 0 a 104.115 104.115 0 1 0 208.23 0 a 104.115 104.115 0 1 0 -208.23 0 Z" fill="#ffb791" /></svg>